<svg width="26" height="26" viewBox="0 0 26 26" fill="none" xmlns="http://www.w3.org/2000/svg">
<path d="M6.35999 6.33236C5.89498 6.79738 5.89498 7.50858 6.35999 7.9736C6.82501 8.41126 7.53622 8.43862 8.00124 7.9736C9.12275 6.85208 10.9281 6.85208 12.0223 7.9736C12.4873 8.41126 13.1985 8.43862 13.6635 7.9736C14.1285 7.50858 14.1285 6.79738 13.6635 6.33236C11.6393 4.30816 8.35684 4.30816 6.35999 6.33236Z" fill="white"/>
<path d="M25.6718 22.1978L21.213 17.7391C20.7754 17.3014 20.0915 17.3014 19.6539 17.7391L19.5171 17.8759L17.8485 16.1799C20.9395 12.2409 20.6933 6.52393 17.0552 2.9132C13.171 -0.971068 6.82483 -0.971068 2.9132 2.9132C-0.971068 6.79747 -0.971068 13.1436 2.9132 17.0552C6.55129 20.666 12.2683 20.9121 16.2073 17.7938L17.9032 19.4624L17.7664 19.5992C17.3288 20.0368 17.3288 20.7207 17.7664 21.1583L22.2251 25.617C22.6628 26.0547 23.3467 26.0547 23.7843 25.617L25.6718 23.7296C26.1094 23.3193 26.1094 22.6355 25.6718 22.1978ZM4.5818 15.414C1.60021 12.4324 1.60021 7.56339 4.5818 4.55445C7.56339 1.57286 12.4324 1.57286 15.4413 4.55445C18.4229 7.53603 18.4229 12.4051 15.4413 15.414C12.4324 18.3956 7.56339 18.3956 4.5818 15.414Z" fill="white"/>
</svg>
