<svg width="18" height="21" viewBox="0 0 18 21" fill="none" xmlns="http://www.w3.org/2000/svg">
<path d="M18 18.5812L16.6204 6.35497C16.5985 6.13508 16.4234 6.00314 16.2044 6.00314H13.8394V4.8377C13.8394 2.17696 11.6496 0 9 0C6.35036 0 4.16058 2.17696 4.16058 4.8377V6.00314H1.79562C1.57664 6.00314 1.40146 6.17906 1.37956 6.35497L0 18.5812C0 18.6031 0 18.6031 0 18.6471C0 19.9445 1.0511 21 2.34307 21H15.635C16.927 21 17.9781 19.9445 17.9781 18.6471C18 18.6471 18 18.6031 18 18.5812ZM5.54015 4.81571C5.54015 2.92461 7.09489 1.36335 9 1.36335C10.9051 1.36335 12.4599 2.92461 12.4599 4.81571V5.98115H5.54015V4.81571ZM5.05839 10.9948C4.37956 10.9948 3.85401 10.467 3.85401 9.78534C3.85401 9.10366 4.37956 8.57592 5.05839 8.57592C5.73723 8.57592 6.26277 9.10366 6.26277 9.78534C6.26277 10.467 5.73723 10.9948 5.05839 10.9948ZM12.9416 10.9948C12.2628 10.9948 11.7372 10.467 11.7372 9.78534C11.7372 9.10366 12.2628 8.57592 12.9416 8.57592C13.6204 8.57592 14.146 9.10366 14.146 9.78534C14.146 10.467 13.5985 10.9948 12.9416 10.9948Z" fill="white"/>
</svg>
